# xmcd CD database file
#
# Track frame offsets:
#	150
#	18587
#	36166
#	53927
#	71761
#	92188
#	117341
#	138470
#	156661
#	173390
#	187928
#	201311
#	208048
#	228855
#	257089
#	295573
#	319274
#	337833
#
# Disc length: 4799 seconds
#
# Revision: 0
# Processed by: cddbd v1.5.2PL0 Copyright (c) Steve Scherf et al.
# Submitted via: CDex 1.51
#
DISCID=0712bd12
DTITLE=張學友 - 學友光年2
DYEAR=2008
DGENRE=Jazz
TTITLE0=紅色
TTITLE1=屈到病
TTITLE2=小城大事
TTITLE3=天黑黑
TTITLE4=每天愛你多一些
TTITLE5=吻別
TTITLE6=忘記他
TTITLE7=是否在戀愛
TTITLE8=愛是永恆
TTITLE9=男人本該妒忌
TTITLE10=你是愛我的
TTITLE11=一個人的犧牲
TTITLE12=命運曲
TTITLE13=如果愛
TTITLE14=非常夏日
TTITLE15=還是覺得你最好
TTITLE16=月半灣
TTITLE17=真情流露
EXTD=YEAR: 2008
EXTT0=
EXTT1=
EXTT2=
EXTT3=
EXTT4=
EXTT5=
EXTT6=
EXTT7=
EXTT8=
EXTT9=
EXTT10=
EXTT11=
EXTT12=
EXTT13=
EXTT14=
EXTT15=
EXTT16=
EXTT17=
PLAYORDER=
